<svg width="23" height="20" viewBox="0 0 23 20" fill="none" xmlns="http://www.w3.org/2000/svg">
<path d="M0 1.97604C0 1.10557 0.716862 0.3375 1.63854 0.3375H21.301C22.1715 0.3375 22.9396 1.10557 22.9396 1.97604C22.9396 2.89772 22.1715 3.61458 21.301 3.61458H1.63854C0.716862 3.61458 0 2.89772 0 1.97604ZM0 10.1687C0 9.29827 0.716862 8.53021 1.63854 8.53021H21.301C22.1715 8.53021 22.9396 9.29827 22.9396 10.1687C22.9396 11.0904 22.1715 11.8073 21.301 11.8073H1.63854C0.716862 11.8073 0 11.0904 0 10.1687ZM22.9396 18.3615C22.9396 19.2831 22.1715 20 21.301 20H1.63854C0.716862 20 0 19.2831 0 18.3615C0 17.491 0.716862 16.7229 1.63854 16.7229H21.301C22.1715 16.7229 22.9396 17.491 22.9396 18.3615Z" fill="white"/>
</svg>
