<svg width="27" height="27" viewBox="0 0 27 27" fill="none" xmlns="http://www.w3.org/2000/svg">
<path d="M21.301 10.7109C21.301 13.0663 20.533 15.2681 19.2529 17.0091L25.7046 23.512C26.3703 24.1265 26.3703 25.2018 25.7046 25.8162C25.0902 26.4819 24.0149 26.4819 23.4004 25.8162L16.8975 19.3133C15.1565 20.6446 12.9547 21.3615 10.6505 21.3615C4.76201 21.3615 0 16.5994 0 10.7109C0 4.87363 4.76201 0.0604162 10.6505 0.0604162C16.4878 0.0604162 21.301 4.87363 21.301 10.7109ZM10.6505 18.0844C14.6957 18.0844 18.024 14.8073 18.024 10.7109C18.024 6.66579 14.6957 3.3375 10.6505 3.3375C6.55417 3.3375 3.27708 6.66579 3.27708 10.7109C3.27708 14.8073 6.55417 18.0844 10.6505 18.0844Z" fill="#F7941E"/>
</svg>
